<svg xmlns="http://www.w3.org/2000/svg" width="51" height="45" viewBox="0 0 51 45" fill="none">
  <path opacity="0.5" d="M30.99 0.510699C30.99 0.510699 44.418 -0.36048 44.418 13.6193C44.418 22.9333 46.878 26.19 48.522 27.3302C49.122 27.7453 49.044 28.634 48.414 29.0024C46.602 30.0606 43.332 31.4697 39.3 30.9728C39.036 30.9377 38.91 31.2709 39.132 31.4113L48.51 36.6968C50.052 37.568 51 39.17 51 40.9065V42.0058C51 43.2219 49.992 44.2042 48.744 44.2042H35.388L21.102 38.2053L24.492 1.73269C27.774 0.30606 30.99 0.510699 30.99 0.510699Z" fill="#EA3A60"/>
  <path d="M3.552 14.6826C3.996 14.3552 4.284 13.8816 4.29 13.3437C4.32 10.2975 5.334 0.51001 17.226 0.51001C17.388 0.51001 17.538 0.515857 17.694 0.521703C17.85 0.515857 18 0.51001 18.162 0.51001C30.048 0.51001 31.068 10.2858 31.092 13.3378C31.098 13.8699 31.368 14.3493 31.806 14.665C33.066 15.5771 33.72 17.1207 33.126 18.5356C32.226 20.6814 30.396 22.4997 29.496 23.3007C29.16 23.5989 28.98 24.0257 28.962 24.4642C28.776 29.4048 26.676 31.1822 25.35 31.8253C24.558 32.2054 24.03 32.9128 24.03 33.7255C24.03 34.7429 25.14 35.5146 26.016 36.0642L31.476 37.2511C33.756 37.7481 35.382 39.7185 35.382 41.9987V44.1971H9.666L6.534 25.8616C6.48 25.4231 6.438 24.9671 6.42 24.4701C6.402 24.0257 6.222 23.6048 5.886 23.3066C4.986 22.4997 3.132 20.6638 2.238 18.5005C1.662 17.0915 2.31599 15.5947 3.552 14.6826Z" fill="#EA3A60"/>
  <path d="M0 34.7721C0 39.9758 4.332 44.1972 9.672 44.1972C15.012 44.1972 19.344 39.9758 19.344 34.7721C19.344 29.5684 15.012 25.3469 9.672 25.3469C4.332 25.3469 0 29.5684 0 34.7721Z" fill="white"/>
  <path d="M9.67201 40.7717C10.158 40.7717 10.554 40.3858 10.554 39.9122V29.6332C10.554 29.1596 10.158 28.7795 9.67201 28.7795C9.18599 28.7795 8.78998 29.1596 8.78998 29.6332V39.918C8.79598 40.3858 9.18599 40.7717 9.67201 40.7717Z" fill="#EA3A60"/>
  <path d="M4.39799 35.6318H14.946C15.432 35.6318 15.828 35.246 15.828 34.7783C15.828 34.3048 15.432 33.9189 14.946 33.9189H4.39199C3.90599 33.9189 3.50999 34.3048 3.50999 34.7783C3.51599 35.246 3.91199 35.6318 4.39799 35.6318Z" fill="#EA3A60"/>
</svg>