<svg xmlns="http://www.w3.org/2000/svg" width="47" height="43" viewBox="0 0 47 43" fill="none">
  <g clip-path="url(#clip0_1_480)">
    <path d="M35.2 12.8104V29.7204C35.2 31.9004 33.44 33.6604 31.26 33.6604L17.6 33.7304L9.6 42.5304V33.7304H3.94C1.77 33.7304 0 31.9604 0 29.7804V12.8704C0 10.6904 1.77 8.92036 3.94 8.92036L31.26 8.87036C33.43 8.87036 35.2 10.6404 35.2 12.8104Z" fill="#EA3A60"/>
    <path d="M17.6 17.6703H7.19999C6.75999 17.6703 6.39999 17.3103 6.39999 16.8703C6.39999 16.4303 6.75999 16.0703 7.19999 16.0703H17.6C18.04 16.0703 18.4 16.4303 18.4 16.8703C18.4 17.3103 18.04 17.6703 17.6 17.6703Z" fill="white"/>
    <path d="M28 22.4704H7.19999C6.75999 22.4704 6.39999 22.1104 6.39999 21.6704C6.39999 21.2304 6.75999 20.8704 7.19999 20.8704H28C28.44 20.8704 28.8 21.2304 28.8 21.6704C28.8 22.1104 28.44 22.4704 28 22.4704Z" fill="white"/>
    <path d="M28 27.2704H7.19999C6.75999 27.2704 6.39999 26.9104 6.39999 26.4704C6.39999 26.0304 6.75999 25.6704 7.19999 25.6704H28C28.44 25.6704 28.8 26.0204 28.8 26.4704C28.8 26.9104 28.44 27.2704 28 27.2704Z" fill="white"/>
    <path opacity="0.5" d="M42.46 0.120313L15.14 0.0703125C12.96 0.0703125 11.19 1.84031 11.19 4.01031V8.91031L31.26 8.87031C33.44 8.87031 35.2 10.6303 35.2 12.8103V27.5703L40.8 33.7303V24.9303H42.46C44.64 24.9303 46.4 23.1703 46.4 20.9903V4.07031C46.4 1.89031 44.63 0.120313 42.46 0.120313Z" fill="#EA3A60"/>
  </g>
  <defs>
    <clipPath id="clip0_1_480">
      <rect width="46.4" height="42.46" fill="white" transform="translate(0 0.0703125)"/>
    </clipPath>
  </defs>
</svg>