<svg xmlns="http://www.w3.org/2000/svg" width="43" height="44" viewBox="0 0 43 44" fill="none">
  <path fill-rule="evenodd" clip-rule="evenodd" d="M40.1186 11.0443C38.1959 7.66748 35.5877 4.99327 32.2934 3.02233C28.9982 1.05082 25.4012 0.0658855 21.4998 0.0658855C17.5986 0.0658855 14.0005 1.05133 10.7062 3.02233C7.41152 4.99327 4.8032 7.66748 2.88039 11.0443C0.957757 14.4218 -0.00353396 18.1099 -0.00353396 22.1088C-0.00353396 26.911 1.36346 31.2309 4.09834 35.0669C6.8328 38.9034 10.3654 41.5583 14.6958 43.0309C15.1998 43.1266 15.573 43.0594 15.8157 42.8309C16.0583 42.6013 16.1796 42.3137 16.1796 41.9696C16.1796 41.9121 16.1748 41.3954 16.1656 40.4201C16.156 39.4438 16.1514 38.5922 16.1514 37.8658L15.5075 37.9804C15.0968 38.0567 14.5789 38.09 13.9534 38.0809C13.3283 38.0717 12.6795 38.0045 12.0076 37.8798C11.3354 37.7556 10.7103 37.4691 10.1315 37.0196C9.55316 36.5696 9.14257 35.9809 8.89996 35.254L8.61979 34.5933C8.43325 34.154 8.1395 33.6658 7.73802 33.1303C7.33669 32.5943 6.93075 32.2309 6.52016 32.0395L6.32412 31.8959C6.19365 31.8002 6.07234 31.6852 5.9602 31.5513C5.8483 31.418 5.7644 31.2831 5.70833 31.1491C5.65235 31.0159 5.69884 30.9051 5.8483 30.8191C5.99785 30.7325 6.26815 30.69 6.66036 30.69L7.22008 30.7766C7.5934 30.8524 8.05527 31.0825 8.60607 31.4648C9.15662 31.8476 9.60928 32.3449 9.9639 32.9567C10.3935 33.7416 10.911 34.3395 11.5179 34.7513C12.1244 35.1626 12.7359 35.368 13.3517 35.368C13.9675 35.368 14.4994 35.3201 14.9476 35.225C15.3953 35.1287 15.8154 34.9852 16.2075 34.7943C16.3755 33.5115 16.8329 32.5266 17.5793 31.8379C16.5154 31.7233 15.5589 31.5502 14.7093 31.3212C13.8603 31.0911 12.9828 30.7185 12.0778 30.2008C11.1722 29.6847 10.4209 29.0438 9.8236 28.2782C9.22647 27.5126 8.7363 26.5083 8.35396 25.2647C7.97128 24.0212 7.78004 22.5857 7.78004 20.9594C7.78004 18.6438 8.51747 16.6734 9.99219 15.0465C9.30129 13.3056 9.36667 11.3546 10.188 9.1922C10.7293 9.01962 11.532 9.1492 12.5959 9.57981C13.6599 10.01 14.439 10.3793 14.9339 10.6847C15.4287 10.99 15.8252 11.2492 16.1239 11.46C17.8601 10.9621 19.6519 10.7132 21.4998 10.7132C23.3476 10.7132 25.1397 10.9621 26.8765 11.46L27.9403 10.7707C28.6679 10.3116 29.527 9.89058 30.5157 9.50725C31.505 9.12499 32.2616 9.01962 32.784 9.1922C33.624 11.3546 33.6986 13.3062 33.0079 15.047C34.4825 16.6739 35.2199 18.6449 35.2199 20.9599C35.2199 22.5868 35.0282 24.0261 34.6459 25.2788C34.263 26.533 33.769 27.5368 33.1623 28.2927C32.5555 29.0492 31.7993 29.6852 30.8942 30.2013C29.9888 30.7185 29.1115 31.0911 28.2621 31.3212C27.4127 31.5508 26.4562 31.7239 25.3924 31.8379C26.3629 32.6992 26.8483 34.0572 26.8483 35.9137V41.9691C26.8483 42.3131 26.965 42.6002 27.1983 42.8293C27.4315 43.0594 27.8 43.126 28.3041 43.0303C32.6347 41.5572 36.1672 38.9024 38.9017 35.0653C41.6363 31.2298 43.0035 26.9105 43.0035 22.1072C43.0028 18.1094 42.0409 14.4218 40.1186 11.0443Z" fill="#EA3A60"/>
</svg>