<svg xmlns="http://www.w3.org/2000/svg" width="95" height="104" viewBox="0 0 95 104" fill="none">
  <g filter="url(#filter0_d_1_29)">
    <path fill-rule="evenodd" clip-rule="evenodd" d="M47.4664 16.9999C62.0887 16.9999 73.9425 28.8644 73.9425 43.4999C73.9425 58.1353 62.0887 69.9999 47.4664 69.9999C32.8439 69.9999 20.9901 58.1353 20.9901 43.4999C20.9901 28.8644 32.8439 16.9999 47.4664 16.9999Z" fill="#FF4361"/>
    <path fill-rule="evenodd" clip-rule="evenodd" d="M47.4664 16.9999C62.0887 16.9999 73.9425 28.8644 73.9425 43.4999C73.9425 58.1353 62.0887 69.9999 47.4664 69.9999C32.8439 69.9999 20.9901 58.1353 20.9901 43.4999C20.9901 28.8644 32.8439 16.9999 47.4664 16.9999Z" fill="url(#paint0_linear_1_29)"/>
  </g>
  <path fill-rule="evenodd" clip-rule="evenodd" d="M41.9722 0.999936H51.9631C68.5168 0.999936 81.9362 14.4311 81.9362 30.9999V40.9999C81.9362 57.5682 68.5168 70.9998 51.9631 70.9998H41.9722C25.4185 70.9998 11.999 57.5682 11.999 40.9999V30.9999C11.999 14.4311 25.4185 0.999936 41.9722 0.999936Z" fill="#FF4361"/>
  <path fill-rule="evenodd" clip-rule="evenodd" d="M41.9722 0.999936H51.9631C68.5168 0.999936 81.9362 14.4311 81.9362 30.9999V40.9999C81.9362 57.5682 68.5168 70.9998 51.9631 70.9998H41.9722C25.4185 70.9998 11.999 57.5682 11.999 40.9999V30.9999C11.999 14.4311 25.4185 0.999936 41.9722 0.999936Z" fill="url(#paint1_linear_1_29)"/>
  <path fill-rule="evenodd" clip-rule="evenodd" d="M55.908 31.0026C55.8164 30.7972 55.6193 30.6655 55.4021 30.6655H48.7861L55.3156 19.894C55.4244 19.7144 55.4311 19.487 55.3329 19.3015C55.2347 19.1144 55.047 18.9988 54.8437 18.9988H45.9107C45.6992 18.9988 45.5059 19.1236 45.411 19.3214L37.0363 36.8214C36.9498 37.0021 36.9593 37.2166 37.0608 37.3886C37.163 37.5607 37.3422 37.665 37.536 37.665H43.2772L37.0212 53.1891C36.9146 53.4547 37.0095 53.7623 37.2445 53.9133C37.3349 53.9703 37.4354 53.9988 37.5354 53.9988C37.6956 53.9988 37.8536 53.9268 37.9631 53.7918L55.8292 31.6252C55.9694 31.4515 55.9995 31.2085 55.908 31.0026Z" fill="white"/>
  <defs>
    <filter id="filter0_d_1_29" x="-0.0098877" y="9" width="94.9524" height="95" filterUnits="userSpaceOnUse" color-interpolation-filters="sRGB">
      <feFlood flood-opacity="0" result="BackgroundImageFix"/>
      <feColorMatrix in="SourceAlpha" type="matrix" values="0 0 0 0 0 0 0 0 0 0 0 0 0 0 0 0 0 0 127 0" result="hardAlpha"/>
      <feOffset dy="13"/>
      <feGaussianBlur stdDeviation="10.5"/>
      <feColorMatrix type="matrix" values="0 0 0 0 0.898039 0 0 0 0 0.117647 0 0 0 0 0.435294 0 0 0 0.3 0"/>
      <feBlend mode="normal" in2="BackgroundImageFix" result="effect1_dropShadow_1_29"/>
      <feBlend mode="normal" in="SourceGraphic" in2="effect1_dropShadow_1_29" result="shape"/>
    </filter>
    <linearGradient id="paint0_linear_1_29" x1="51.5978" y1="102.635" x2="106.605" y2="39.4138" gradientUnits="userSpaceOnUse">
      <stop stop-color="#F80759"/>
      <stop offset="1" stop-color="#BC4E9C"/>
    </linearGradient>
    <linearGradient id="paint1_linear_1_29" x1="52.3761" y1="113.413" x2="124.385" y2="30.6507" gradientUnits="userSpaceOnUse">
      <stop stop-color="#F80759"/>
      <stop offset="1" stop-color="#BC4E9C"/>
    </linearGradient>
  </defs>
</svg>