<svg width="142" height="25" viewBox="0 0 142 25" fill="none" xmlns="http://www.w3.org/2000/svg">
<path opacity="0.8" d="M46.5114 16.3598H50.9914V18.9998H43.0914V4.95976H46.5114V16.3598ZM51.9427 13.3998C51.9427 12.2531 52.156 11.2464 52.5827 10.3798C53.0227 9.51309 53.616 8.84642 54.3627 8.37976C55.1094 7.91309 55.9427 7.67975 56.8627 7.67975C57.6494 7.67975 58.336 7.83975 58.9227 8.15975C59.5227 8.47976 59.9827 8.89976 60.3027 9.41976V7.83976H63.7227V18.9998H60.3027V17.4198C59.9694 17.9398 59.5027 18.3598 58.9027 18.6798C58.316 18.9998 57.6294 19.1598 56.8427 19.1598C55.936 19.1598 55.1094 18.9264 54.3627 18.4598C53.616 17.9798 53.0227 17.3064 52.5827 16.4398C52.156 15.5598 51.9427 14.5464 51.9427 13.3998ZM60.3027 13.4198C60.3027 12.5664 60.0627 11.8931 59.5827 11.3998C59.116 10.9064 58.5427 10.6598 57.8627 10.6598C57.1827 10.6598 56.6027 10.9064 56.1227 11.3998C55.656 11.8798 55.4227 12.5464 55.4227 13.3998C55.4227 14.2531 55.656 14.9331 56.1227 15.4398C56.6027 15.9331 57.1827 16.1798 57.8627 16.1798C58.5427 16.1798 59.116 15.9331 59.5827 15.4398C60.0627 14.9464 60.3027 14.2731 60.3027 13.4198ZM72.9969 7.71976C74.3036 7.71976 75.3436 8.14642 76.1169 8.99976C76.9036 9.83976 77.2969 10.9998 77.2969 12.4798V18.9998H73.8969V12.9398C73.8969 12.1931 73.7036 11.6131 73.3169 11.1998C72.9302 10.7864 72.4102 10.5798 71.7569 10.5798C71.1036 10.5798 70.5836 10.7864 70.1969 11.1998C69.8102 11.6131 69.6169 12.1931 69.6169 12.9398V18.9998H66.1969V7.83976H69.6169V9.31976C69.9636 8.82642 70.4302 8.43976 71.0169 8.15975C71.6036 7.86642 72.2636 7.71976 72.9969 7.71976ZM78.9935 13.3998C78.9935 12.2531 79.2068 11.2464 79.6335 10.3798C80.0735 9.51309 80.6668 8.84642 81.4135 8.37976C82.1601 7.91309 82.9935 7.67975 83.9135 7.67975C84.6468 7.67975 85.3135 7.83309 85.9135 8.13976C86.5268 8.44642 87.0068 8.85976 87.3535 9.37976V4.19976H90.7735V18.9998H87.3535V17.3998C87.0335 17.9331 86.5735 18.3598 85.9735 18.6798C85.3868 18.9998 84.7001 19.1598 83.9135 19.1598C82.9935 19.1598 82.1601 18.9264 81.4135 18.4598C80.6668 17.9798 80.0735 17.3064 79.6335 16.4398C79.2068 15.5598 78.9935 14.5464 78.9935 13.3998ZM87.3535 13.4198C87.3535 12.5664 87.1135 11.8931 86.6335 11.3998C86.1668 10.9064 85.5935 10.6598 84.9135 10.6598C84.2335 10.6598 83.6535 10.9064 83.1735 11.3998C82.7068 11.8798 82.4735 12.5464 82.4735 13.3998C82.4735 14.2531 82.7068 14.9331 83.1735 15.4398C83.6535 15.9331 84.2335 16.1798 84.9135 16.1798C85.5935 16.1798 86.1668 15.9331 86.6335 15.4398C87.1135 14.9464 87.3535 14.2731 87.3535 13.4198ZM97.4877 7.67975C98.2744 7.67975 98.961 7.83975 99.5477 8.15975C100.148 8.47976 100.608 8.89976 100.928 9.41976V7.83976H104.348V18.9798C104.348 20.0064 104.141 20.9331 103.728 21.7598C103.328 22.5998 102.708 23.2664 101.868 23.7598C101.041 24.2531 100.008 24.4998 98.7677 24.4998C97.1144 24.4998 95.7744 24.1064 94.7477 23.3198C93.721 22.5464 93.1344 21.4931 92.9877 20.1598H96.3677C96.4744 20.5864 96.7277 20.9198 97.1277 21.1598C97.5277 21.4131 98.021 21.5398 98.6077 21.5398C99.3144 21.5398 99.8744 21.3331 100.288 20.9198C100.714 20.5198 100.928 19.8731 100.928 18.9798V17.3998C100.594 17.9198 100.134 18.3464 99.5477 18.6798C98.961 18.9998 98.2744 19.1598 97.4877 19.1598C96.5677 19.1598 95.7344 18.9264 94.9877 18.4598C94.241 17.9798 93.6477 17.3064 93.2077 16.4398C92.781 15.5598 92.5677 14.5464 92.5677 13.3998C92.5677 12.2531 92.781 11.2464 93.2077 10.3798C93.6477 9.51309 94.241 8.84642 94.9877 8.37976C95.7344 7.91309 96.5677 7.67975 97.4877 7.67975ZM100.928 13.4198C100.928 12.5664 100.688 11.8931 100.208 11.3998C99.741 10.9064 99.1677 10.6598 98.4877 10.6598C97.8077 10.6598 97.2277 10.9064 96.7477 11.3998C96.281 11.8798 96.0477 12.5464 96.0477 13.3998C96.0477 14.2531 96.281 14.9331 96.7477 15.4398C97.2277 15.9331 97.8077 16.1798 98.4877 16.1798C99.1677 16.1798 99.741 15.9331 100.208 15.4398C100.688 14.9464 100.928 14.2731 100.928 13.4198ZM117.842 7.83976V18.9998H114.422V17.4798C114.075 17.9731 113.602 18.3731 113.002 18.6798C112.415 18.9731 111.762 19.1198 111.042 19.1198C110.189 19.1198 109.435 18.9331 108.782 18.5598C108.129 18.1731 107.622 17.6198 107.262 16.8998C106.902 16.1798 106.722 15.3331 106.722 14.3598V7.83976H110.122V13.8998C110.122 14.6464 110.315 15.2264 110.702 15.6398C111.089 16.0531 111.609 16.2598 112.262 16.2598C112.929 16.2598 113.455 16.0531 113.842 15.6398C114.229 15.2264 114.422 14.6464 114.422 13.8998V7.83976H117.842ZM123.718 9.69976C124.118 9.08642 124.618 8.60642 125.218 8.25976C125.818 7.89976 126.485 7.71976 127.218 7.71976V11.3398H126.278C125.425 11.3398 124.785 11.5264 124.358 11.8998C123.932 12.2598 123.718 12.8998 123.718 13.8198V18.9998H120.298V7.83976H123.718V9.69976ZM139.873 7.83976V18.9998H136.453V17.4798C136.106 17.9731 135.633 18.3731 135.033 18.6798C134.446 18.9731 133.793 19.1198 133.073 19.1198C132.22 19.1198 131.466 18.9331 130.813 18.5598C130.16 18.1731 129.653 17.6198 129.293 16.8998C128.933 16.1798 128.753 15.3331 128.753 14.3598V7.83976H132.153V13.8998C132.153 14.6464 132.346 15.2264 132.733 15.6398C133.12 16.0531 133.64 16.2598 134.293 16.2598C134.96 16.2598 135.486 16.0531 135.873 15.6398C136.26 15.2264 136.453 14.6464 136.453 13.8998V7.83976H139.873Z" fill="#02073E"/>
<path fill-rule="evenodd" clip-rule="evenodd" d="M29.2841 6.28886C29.2887 6.3706 29.2828 6.4536 29.2624 6.53704L27.4367 13.8693C27.3445 14.2383 27.0148 14.4985 26.6358 14.5007L15.6818 14.5561C15.6805 14.5561 15.6791 14.5561 15.6776 14.5561H4.72364C4.34252 14.5561 4.01048 14.2951 3.91849 13.924L2.0928 6.56369C2.07172 6.47853 2.0657 6.39295 2.07101 6.30909C1.36473 6.08589 0.851074 5.42228 0.851074 4.6404C0.851074 3.67491 1.63277 2.89001 2.59372 2.89001C3.55467 2.89001 4.33637 3.67491 4.33637 4.6404C4.33637 5.18358 4.08839 5.66958 3.70013 5.99126L5.98585 8.30334C6.56359 8.88779 7.36516 9.22325 8.18523 9.22325C9.15498 9.22325 10.0795 8.7605 10.6617 7.98593L14.4182 2.98806C14.1027 2.67153 13.9072 2.23414 13.9072 1.75162C13.9072 0.786524 14.6889 0.0012207 15.6499 0.0012207C16.6108 0.0012207 17.3925 0.786524 17.3925 1.75162C17.3925 2.21954 17.2075 2.64401 16.9085 2.95839C16.9094 2.95969 16.9107 2.96099 16.9117 2.96226L20.6408 7.9739C21.2229 8.75578 22.1507 9.22325 23.1232 9.22325C23.9509 9.22325 24.7292 8.89942 25.3143 8.31194L27.6144 6.00201C27.218 5.68075 26.9634 5.19048 26.9634 4.6404C26.9634 3.67491 27.7452 2.89001 28.7061 2.89001C29.667 2.89001 30.4488 3.67491 30.4488 4.6404C30.4488 5.4012 29.9613 6.04889 29.2841 6.28886ZM27.2585 17.1667C27.2585 16.707 26.8869 16.3336 26.4287 16.3336H4.9634C4.5051 16.3336 4.13351 16.707 4.13351 17.1667V19.1665C4.13351 19.6271 4.5051 20 4.9634 20H26.4287C26.8869 20 27.2585 19.6271 27.2585 19.1665V17.1667Z" fill="#02073E"/>
</svg>
